<?xml version="1.0" encoding="UTF-8"?>
<svg xmlns="http://www.w3.org/2000/svg" xmlns:xlink="http://www.w3.org/1999/xlink" width="24pt" height="24pt" viewBox="0 0 24 24" version="1.1">
<g id="surface1">
<path style=" stroke:none;fill-rule:nonzero;fill:rgb(100%,100%,100%);fill-opacity:1;" d="M 23.976562 7.054688 C 23.921875 5.78125 23.714844 4.902344 23.417969 4.144531 C 23.113281 3.339844 22.644531 2.617188 22.03125 2.015625 C 21.429688 1.40625 20.703125 0.933594 19.90625 0.632812 C 19.144531 0.335938 18.269531 0.132812 16.996094 0.0742188 C 15.710938 0.015625 15.304688 0 12.042969 0 C 8.785156 0 8.378906 0.015625 7.097656 0.0703125 C 5.824219 0.125 4.945312 0.332031 4.1875 0.628906 C 3.378906 0.933594 2.660156 1.402344 2.058594 2.015625 C 1.449219 2.617188 0.976562 3.34375 0.675781 4.140625 C 0.378906 4.902344 0.171875 5.777344 0.117188 7.050781 C 0.0546875 8.335938 0.0429688 8.742188 0.0429688 12.003906 C 0.0429688 15.261719 0.0546875 15.667969 0.113281 16.949219 C 0.167969 18.222656 0.375 19.101562 0.671875 19.859375 C 0.976562 20.667969 1.449219 21.386719 2.058594 21.988281 C 2.660156 22.597656 3.386719 23.070312 4.183594 23.371094 C 4.945312 23.667969 5.816406 23.875 7.09375 23.929688 C 8.375 23.984375 8.78125 24 12.039062 24 C 15.296875 24 15.707031 23.984375 16.984375 23.929688 C 18.261719 23.875 19.136719 23.667969 19.898438 23.371094 C 21.511719 22.75 22.785156 21.472656 23.410156 19.859375 C 23.703125 19.097656 23.910156 18.222656 23.96875 16.949219 C 24.023438 15.667969 24.039062 15.261719 24.039062 12.003906 C 24.039062 8.742188 24.03125 8.335938 23.976562 7.054688 Z M 21.816406 16.855469 C 21.761719 18.027344 21.566406 18.660156 21.402344 19.082031 C 21 20.128906 20.167969 20.957031 19.125 21.359375 C 18.703125 21.523438 18.066406 21.722656 16.898438 21.773438 C 15.632812 21.828125 15.25 21.84375 12.050781 21.84375 C 8.847656 21.84375 8.460938 21.828125 7.203125 21.773438 C 6.027344 21.722656 5.394531 21.523438 4.972656 21.359375 C 4.453125 21.167969 3.980469 20.863281 3.597656 20.464844 C 3.199219 20.074219 2.894531 19.605469 2.699219 19.085938 C 2.535156 18.664062 2.339844 18.027344 2.289062 16.859375 C 2.230469 15.59375 2.21875 15.214844 2.21875 12.011719 C 2.21875 8.808594 2.230469 8.425781 2.289062 7.164062 C 2.339844 5.992188 2.535156 5.359375 2.699219 4.9375 C 2.894531 4.417969 3.199219 3.941406 3.601562 3.558594 C 3.988281 3.160156 4.457031 2.855469 4.980469 2.664062 C 5.402344 2.5 6.039062 2.300781 7.207031 2.25 C 8.472656 2.195312 8.851562 2.179688 12.054688 2.179688 C 15.261719 2.179688 15.640625 2.195312 16.902344 2.25 C 18.074219 2.300781 18.707031 2.5 19.128906 2.664062 C 19.648438 2.855469 20.121094 3.160156 20.507812 3.558594 C 20.90625 3.949219 21.210938 4.417969 21.402344 4.9375 C 21.566406 5.359375 21.761719 5.996094 21.816406 7.164062 C 21.871094 8.429688 21.886719 8.808594 21.886719 12.011719 C 21.886719 15.214844 21.871094 15.589844 21.816406 16.855469 Z M 21.816406 16.855469 "/>
<path style=" stroke:none;fill-rule:nonzero;fill:rgb(100%,100%,100%);fill-opacity:1;" d="M 12.042969 5.835938 C 8.640625 5.835938 5.878906 8.597656 5.878906 12.003906 C 5.878906 15.40625 8.640625 18.167969 12.042969 18.167969 C 15.449219 18.167969 18.210938 15.40625 18.210938 12.003906 C 18.210938 8.597656 15.449219 5.835938 12.042969 5.835938 Z M 12.042969 16 C 9.835938 16 8.046875 14.210938 8.046875 12.003906 C 8.046875 9.792969 9.835938 8.003906 12.042969 8.003906 C 14.253906 8.003906 16.042969 9.792969 16.042969 12.003906 C 16.042969 14.210938 14.253906 16 12.042969 16 Z M 12.042969 16 "/>
<path style=" stroke:none;fill-rule:nonzero;fill:rgb(100%,100%,100%);fill-opacity:1;" d="M 19.894531 5.59375 C 19.894531 6.386719 19.25 7.03125 18.453125 7.03125 C 17.660156 7.03125 17.015625 6.386719 17.015625 5.59375 C 17.015625 4.796875 17.660156 4.152344 18.453125 4.152344 C 19.25 4.152344 19.894531 4.796875 19.894531 5.59375 Z M 19.894531 5.59375 "/>
</g>
</svg>
