<?xml version="1.0" encoding="UTF-8"?>
<svg xmlns="http://www.w3.org/2000/svg" xmlns:xlink="http://www.w3.org/1999/xlink" width="64pt" height="64pt" viewBox="0 0 64 64" version="1.1">
<g id="surface1">
<path style=" stroke:none;fill-rule:nonzero;fill:rgb(0%,0%,0%);fill-opacity:1;" d="M 42.683594 42.285156 C 49.496094 31.597656 48.640625 32.933594 48.835938 32.652344 C 51.316406 29.15625 52.625 25.039062 52.625 20.75 C 52.625 9.371094 43.390625 0 32 0 C 20.644531 0 11.375 9.355469 11.375 20.75 C 11.375 25.039062 12.714844 29.261719 15.273438 32.804688 L 21.316406 42.285156 C 14.855469 43.277344 3.875 46.238281 3.875 52.75 C 3.875 55.125 5.425781 58.507812 12.808594 61.144531 C 17.964844 62.984375 24.777344 64 32 64 C 45.503906 64 60.125 60.191406 60.125 52.75 C 60.125 46.234375 49.15625 43.28125 42.683594 42.285156 Z M 18.40625 30.742188 C 18.386719 30.710938 18.363281 30.679688 18.339844 30.648438 C 16.210938 27.71875 15.125 24.242188 15.125 20.75 C 15.125 11.371094 22.675781 3.75 32 3.75 C 41.304688 3.75 48.875 11.375 48.875 20.75 C 48.875 24.25 47.808594 27.605469 45.792969 30.457031 C 45.613281 30.695312 46.554688 29.234375 32 52.074219 Z M 32 60.25 C 17.25 60.25 7.625 55.914062 7.625 52.75 C 7.625 50.621094 12.570312 47.125 23.53125 45.761719 L 30.417969 56.570312 C 30.761719 57.109375 31.359375 57.4375 32 57.4375 C 32.640625 57.4375 33.238281 57.109375 33.582031 56.570312 L 40.46875 45.761719 C 51.429688 47.125 56.375 50.621094 56.375 52.75 C 56.375 55.886719 46.835938 60.25 32 60.25 Z M 32 60.25 "/>
<path style=" stroke:none;fill-rule:nonzero;fill:rgb(0%,0%,0%);fill-opacity:1;" d="M 32 11.375 C 26.832031 11.375 22.625 15.582031 22.625 20.75 C 22.625 25.917969 26.832031 30.125 32 30.125 C 37.167969 30.125 41.375 25.917969 41.375 20.75 C 41.375 15.582031 37.167969 11.375 32 11.375 Z M 32 26.375 C 28.898438 26.375 26.375 23.851562 26.375 20.75 C 26.375 17.648438 28.898438 15.125 32 15.125 C 35.101562 15.125 37.625 17.648438 37.625 20.75 C 37.625 23.851562 35.101562 26.375 32 26.375 Z M 32 26.375 "/>
</g>
</svg>
