<?xml version="1.0" encoding="UTF-8"?>
<svg xmlns="http://www.w3.org/2000/svg" xmlns:xlink="http://www.w3.org/1999/xlink" width="64pt" height="64pt" viewBox="0 0 64 64" version="1.1">
<g id="surface1">
<path style=" stroke:none;fill-rule:nonzero;fill:rgb(0%,0%,0%);fill-opacity:1;" d="M 58.375 10.074219 L 5.625 10.074219 C 2.523438 10.074219 0 12.597656 0 15.699219 L 0 48.300781 C 0 51.402344 2.523438 53.925781 5.625 53.925781 L 58.375 53.925781 C 61.476562 53.925781 64 51.402344 64 48.300781 L 64 15.699219 C 64 12.597656 61.476562 10.074219 58.375 10.074219 Z M 57.640625 13.824219 L 56.890625 14.453125 L 34.230469 33.320312 C 32.9375 34.394531 31.0625 34.394531 29.769531 33.320312 L 7.109375 14.453125 L 6.359375 13.824219 Z M 3.75 16.535156 L 22.210938 31.90625 L 3.75 44.191406 Z M 58.375 50.175781 L 5.625 50.175781 C 4.71875 50.175781 3.960938 49.527344 3.789062 48.671875 L 25.21875 34.410156 L 27.367188 36.199219 C 28.710938 37.316406 30.355469 37.875 32 37.875 C 33.644531 37.875 35.289062 37.316406 36.632812 36.199219 L 38.78125 34.410156 L 60.210938 48.671875 C 60.039062 49.527344 59.28125 50.175781 58.375 50.175781 Z M 60.25 44.191406 L 41.789062 31.90625 L 60.25 16.535156 Z M 60.25 44.191406 "/>
</g>
</svg>
