<?xml version="1.0" encoding="UTF-8"?>
<svg xmlns="http://www.w3.org/2000/svg" xmlns:xlink="http://www.w3.org/1999/xlink" width="64pt" height="64pt" viewBox="0 0 64 64" version="1.1">
<g id="surface1">
<path style=" stroke:none;fill-rule:nonzero;fill:rgb(0%,0%,0%);fill-opacity:1;" d="M 50.378906 1.792969 L 50.378906 1.785156 C 49.242188 0.644531 47.699219 0 46.089844 0 L 17.902344 0 C 14.554688 0.0117188 11.84375 2.722656 11.835938 6.070312 L 11.835938 57.925781 C 11.835938 59.535156 12.476562 61.078125 13.621094 62.214844 C 14.753906 63.355469 16.296875 63.996094 17.902344 64 L 46.097656 64 C 47.703125 63.996094 49.246094 63.355469 50.378906 62.214844 C 51.519531 61.082031 52.164062 59.539062 52.164062 57.929688 L 52.164062 6.074219 C 52.164062 4.46875 51.519531 2.925781 50.378906 1.792969 Z M 32 59.882812 C 31.09375 59.882812 30.359375 59.148438 30.359375 58.242188 C 30.359375 57.335938 31.09375 56.601562 32 56.601562 C 32.90625 56.601562 33.640625 57.335938 33.640625 58.242188 C 33.640625 59.148438 32.90625 59.882812 32 59.882812 Z M 47.34375 49.585938 C 47.34375 51.777344 45.570312 53.554688 43.378906 53.554688 L 20.613281 53.554688 C 18.425781 53.554688 16.648438 51.777344 16.648438 49.585938 L 16.648438 10.941406 C 16.648438 8.75 18.425781 6.976562 20.613281 6.976562 L 43.386719 6.976562 C 45.574219 6.976562 47.351562 8.75 47.351562 10.941406 Z M 47.34375 49.585938 "/>
</g>
</svg>
