<?xml version="1.0" encoding="UTF-8"?>
<svg xmlns="http://www.w3.org/2000/svg" xmlns:xlink="http://www.w3.org/1999/xlink" width="24pt" height="24pt" viewBox="0 0 24 24" version="1.1">
<g id="surface1">
<path style=" stroke:none;fill-rule:nonzero;fill:rgb(100%,100%,100%);fill-opacity:1;" d="M 18.023438 1.609375 C 16.183594 0.535156 14.175781 0 12 0 C 9.824219 0 7.816406 0.535156 5.976562 1.609375 C 4.136719 2.683594 2.683594 4.136719 1.609375 5.976562 C 0.535156 7.816406 0 9.824219 0 12 C 0 14.425781 0.660156 16.628906 1.984375 18.609375 C 3.308594 20.589844 5.042969 22.050781 7.1875 23 C 7.144531 21.886719 7.214844 20.964844 7.390625 20.234375 L 8.9375 13.703125 C 8.675781 13.191406 8.546875 12.558594 8.546875 11.796875 C 8.546875 10.910156 8.769531 10.171875 9.21875 9.578125 C 9.667969 8.984375 10.214844 8.6875 10.859375 8.6875 C 11.378906 8.6875 11.78125 8.859375 12.0625 9.203125 C 12.34375 9.546875 12.484375 9.980469 12.484375 10.5 C 12.484375 10.824219 12.425781 11.214844 12.304688 11.679688 C 12.183594 12.144531 12.027344 12.679688 11.835938 13.289062 C 11.644531 13.898438 11.503906 14.386719 11.421875 14.75 C 11.277344 15.386719 11.394531 15.929688 11.78125 16.382812 C 12.167969 16.835938 12.675781 17.0625 13.3125 17.0625 C 14.425781 17.0625 15.339844 16.441406 16.054688 15.203125 C 16.769531 13.964844 17.125 12.457031 17.125 10.6875 C 17.125 9.324219 16.683594 8.214844 15.804688 7.359375 C 14.925781 6.503906 13.699219 6.078125 12.125 6.078125 C 10.363281 6.078125 8.941406 6.644531 7.851562 7.773438 C 6.761719 8.902344 6.21875 10.253906 6.21875 11.828125 C 6.21875 12.765625 6.484375 13.550781 7.015625 14.1875 C 7.191406 14.394531 7.25 14.621094 7.1875 14.859375 C 7.167969 14.921875 7.125 15.078125 7.0625 15.328125 C 7 15.578125 6.957031 15.738281 6.9375 15.8125 C 6.855469 16.144531 6.65625 16.25 6.34375 16.125 C 5.542969 15.792969 4.933594 15.214844 4.515625 14.390625 C 4.097656 13.566406 3.890625 12.613281 3.890625 11.53125 C 3.890625 10.832031 4.003906 10.136719 4.226562 9.4375 C 4.449219 8.738281 4.800781 8.066406 5.273438 7.414062 C 5.746094 6.761719 6.316406 6.1875 6.976562 5.6875 C 7.636719 5.1875 8.441406 4.785156 9.390625 4.484375 C 10.339844 4.183594 11.359375 4.03125 12.453125 4.03125 C 13.933594 4.03125 15.261719 4.359375 16.4375 5.015625 C 17.613281 5.671875 18.511719 6.519531 19.132812 7.5625 C 19.753906 8.605469 20.0625 9.71875 20.0625 10.90625 C 20.0625 12.46875 19.792969 13.875 19.25 15.125 C 18.707031 16.375 17.941406 17.355469 16.953125 18.070312 C 15.964844 18.785156 14.839844 19.140625 13.578125 19.140625 C 12.941406 19.140625 12.347656 18.992188 11.796875 18.695312 C 11.246094 18.398438 10.863281 18.046875 10.65625 17.640625 C 10.1875 19.484375 9.90625 20.582031 9.8125 20.9375 C 9.613281 21.675781 9.207031 22.53125 8.59375 23.5 C 9.707031 23.832031 10.84375 24 12 24 C 14.175781 24 16.183594 23.464844 18.023438 22.390625 C 19.863281 21.316406 21.316406 19.863281 22.390625 18.023438 C 23.464844 16.183594 24 14.175781 24 12 C 24 9.820312 23.464844 7.816406 22.390625 5.976562 C 21.316406 4.136719 19.863281 2.683594 18.023438 1.609375 Z M 18.023438 1.609375 "/>
</g>
</svg>
