<?xml version="1.0" encoding="UTF-8"?>
<svg xmlns="http://www.w3.org/2000/svg" xmlns:xlink="http://www.w3.org/1999/xlink" width="24pt" height="24pt" viewBox="0 0 24 24" version="1.1">
<g id="surface1">
<path style=" stroke:none;fill-rule:nonzero;fill:rgb(100%,100%,100%);fill-opacity:1;" d="M 24 4.558594 C 23.109375 4.949219 22.15625 5.210938 21.164062 5.335938 C 22.183594 4.726562 22.964844 3.769531 23.328125 2.617188 C 22.378906 3.183594 21.328125 3.582031 20.210938 3.808594 C 19.304688 2.84375 18.019531 2.25 16.617188 2.25 C 13.890625 2.25 11.699219 4.460938 11.699219 7.171875 C 11.699219 7.5625 11.730469 7.9375 11.8125 8.292969 C 7.722656 8.09375 4.101562 6.132812 1.671875 3.148438 C 1.246094 3.882812 0.996094 4.726562 0.996094 5.632812 C 0.996094 7.339844 1.875 8.847656 3.183594 9.722656 C 2.390625 9.707031 1.617188 9.476562 0.960938 9.117188 C 0.960938 9.132812 0.960938 9.152344 0.960938 9.171875 C 0.960938 11.5625 2.664062 13.546875 4.902344 14.003906 C 4.5 14.113281 4.066406 14.167969 3.613281 14.167969 C 3.296875 14.167969 2.980469 14.148438 2.679688 14.082031 C 3.316406 16.03125 5.128906 17.464844 7.277344 17.511719 C 5.605469 18.820312 3.476562 19.609375 1.175781 19.609375 C 0.773438 19.609375 0.386719 19.589844 0 19.542969 C 2.179688 20.949219 4.761719 21.75 7.546875 21.75 C 16.601562 21.75 21.550781 14.25 21.550781 7.75 C 21.550781 7.53125 21.542969 7.320312 21.535156 7.113281 C 22.511719 6.421875 23.332031 5.554688 24 4.558594 Z M 24 4.558594 "/>
</g>
</svg>
