<?xml version="1.0" encoding="UTF-8"?>
<svg xmlns="http://www.w3.org/2000/svg" xmlns:xlink="http://www.w3.org/1999/xlink" width="24pt" height="24pt" viewBox="0 0 24 24" version="1.1">
<g id="surface1">
<path style=" stroke:none;fill-rule:nonzero;fill:rgb(100%,100%,100%);fill-opacity:1;" d="M 12 24 C 18.617188 24 24 18.617188 24 12 C 24 5.382812 18.617188 0 12 0 C 5.382812 0 0 5.382812 0 12 C 0 18.617188 5.382812 24 12 24 Z M 4.175781 17.925781 C 5.128906 17.550781 6.324219 17.253906 7.667969 17.046875 C 7.851562 18.144531 8.09375 19.160156 8.394531 20.058594 C 8.550781 20.527344 8.714844 20.941406 8.886719 21.3125 C 6.996094 20.675781 5.359375 19.480469 4.175781 17.925781 Z M 2.183594 12 C 2.183594 10.5625 2.492188 9.199219 3.046875 7.96875 C 4.226562 8.472656 5.71875 8.863281 7.398438 9.117188 C 7.316406 10.046875 7.273438 11.015625 7.273438 12 C 7.273438 12.984375 7.316406 13.953125 7.398438 14.882812 C 5.71875 15.136719 4.226562 15.527344 3.046875 16.03125 C 2.492188 14.800781 2.183594 13.4375 2.183594 12 Z M 12 2.183594 C 12.234375 2.183594 12.917969 2.78125 13.535156 4.632812 C 13.789062 5.390625 14 6.253906 14.160156 7.1875 C 13.457031 7.238281 12.734375 7.261719 12 7.261719 C 11.265625 7.261719 10.542969 7.238281 9.839844 7.1875 C 10 6.253906 10.210938 5.390625 10.464844 4.632812 C 11.082031 2.78125 11.765625 2.183594 12 2.183594 Z M 12 9.445312 C 12.832031 9.445312 13.644531 9.414062 14.433594 9.355469 C 14.507812 10.207031 14.546875 11.09375 14.546875 12 C 14.546875 12.90625 14.507812 13.792969 14.433594 14.644531 C 13.644531 14.585938 12.832031 14.554688 12 14.554688 C 11.167969 14.554688 10.355469 14.585938 9.566406 14.644531 C 9.492188 13.792969 9.453125 12.90625 9.453125 12 C 9.453125 11.09375 9.492188 10.207031 9.566406 9.355469 C 10.355469 9.414062 11.167969 9.445312 12 9.445312 Z M 21.816406 12 C 21.816406 13.4375 21.507812 14.800781 20.953125 16.03125 C 19.773438 15.527344 18.28125 15.136719 16.601562 14.882812 C 16.683594 13.953125 16.726562 12.984375 16.726562 12 C 16.726562 11.015625 16.683594 10.046875 16.601562 9.117188 C 18.28125 8.863281 19.773438 8.472656 20.953125 7.96875 C 21.507812 9.199219 21.816406 10.5625 21.816406 12 Z M 12 21.816406 C 11.765625 21.816406 11.082031 21.21875 10.464844 19.367188 C 10.210938 18.609375 10 17.746094 9.839844 16.8125 C 10.542969 16.761719 11.265625 16.738281 12 16.738281 C 12.734375 16.738281 13.457031 16.761719 14.160156 16.8125 C 14 17.746094 13.789062 18.609375 13.535156 19.367188 C 12.917969 21.21875 12.234375 21.816406 12 21.816406 Z M 15.113281 21.3125 C 15.285156 20.941406 15.449219 20.527344 15.605469 20.058594 C 15.90625 19.160156 16.148438 18.144531 16.332031 17.046875 C 17.675781 17.253906 18.871094 17.550781 19.824219 17.925781 C 18.640625 19.480469 17.003906 20.675781 15.113281 21.3125 Z M 19.824219 6.074219 C 18.871094 6.449219 17.675781 6.746094 16.332031 6.953125 C 16.148438 5.855469 15.90625 4.839844 15.605469 3.941406 C 15.449219 3.472656 15.285156 3.058594 15.113281 2.6875 C 17.003906 3.324219 18.640625 4.519531 19.824219 6.074219 Z M 8.886719 2.6875 C 8.714844 3.058594 8.550781 3.472656 8.394531 3.941406 C 8.09375 4.839844 7.851562 5.855469 7.667969 6.953125 C 6.324219 6.746094 5.128906 6.449219 4.175781 6.074219 C 5.359375 4.519531 6.996094 3.324219 8.886719 2.6875 Z M 8.886719 2.6875 "/>
</g>
</svg>
